<?xml version="1.0" encoding="utf-8"?>
<!-- Generator: Avocode 2.4.5 - http://avocode.com -->
<svg height="40" width="55" xmlns:xlink="http://www.w3.org/1999/xlink" xmlns="http://www.w3.org/2000/svg" viewBox="0 0 55 40">
    <path fill="#ff3334" fill-rule="evenodd" d="M 54.79 15.83 C 54.79 15.83 48.32 1.43 48.32 1.43 C 47.94 0.59 47.09 0 46.1 0 C 44.95 0 43.98 0.8 43.74 1.87 C 43.74 1.87 37.35 29.68 37.35 29.68 C 37.35 29.68 28.94 9.49 28.94 9.49 C 28.57 8.61 27.7 8 26.69 8 C 25.69 8 24.83 8.6 24.46 9.46 C 24.46 9.46 16.82 27.1 16.82 27.1 C 16.82 27.1 12.69 18.93 12.69 18.93 C 12.29 18.14 11.47 17.6 10.51 17.6 C 9.77 17.6 9.1 17.94 8.65 18.46 C 8.65 18.46 0.56 28.06 0.56 28.06 C 0.21 28.48 0 29.01 0 29.6 C 0 30.92 1.09 32 2.43 32 C 3.18 32 3.85 31.66 4.29 31.14 C 4.29 31.14 10 24.36 10 24.36 C 10 24.36 14.81 33.87 14.81 33.87 C 15.21 34.66 16.04 35.2 16.99 35.2 C 17.99 35.2 18.85 34.6 19.22 33.74 C 19.22 33.74 26.65 16.6 26.65 16.6 C 26.65 16.6 35.77 38.51 35.77 38.51 C 36.13 39.39 37 40 38.01 40 C 39.17 40 40.13 39.2 40.38 38.13 C 40.38 38.13 46.85 9.97 46.85 9.97 C 46.85 9.97 50.36 17.77 50.36 17.77 C 50.73 18.61 51.58 19.2 52.57 19.2 C 53.91 19.2 55 18.12 55 16.8 C 55 16.45 54.93 16.12 54.79 15.83 Z" />
</svg>