<?xml version="1.0" encoding="utf-8"?>
<!-- Generator: Avocode 2.4.5 - http://avocode.com -->
<svg height="47" width="47" xmlns:xlink="http://www.w3.org/1999/xlink" xmlns="http://www.w3.org/2000/svg" viewBox="0 0 47 47">
    <path fill="#ff3334" fill-rule="evenodd" d="M 23.5 0 C 10.52 0 0 10.52 0 23.5 C 0 36.48 10.52 47 23.5 47 C 36.48 47 47 36.48 47 23.5 C 47 10.52 36.48 0 23.5 0 Z M 13.5 7.27 C 13.5 7.27 18.55 18.1 18.55 18.1 C 18.4 18.25 18.25 18.4 18.1 18.55 C 18.1 18.55 7.27 13.5 7.27 13.5 C 8.83 10.97 10.97 8.83 13.5 7.27 Z M 23.5 26.44 C 21.88 26.44 20.56 25.12 20.56 23.5 C 20.56 21.88 21.88 20.56 23.5 20.56 C 25.12 20.56 26.44 21.88 26.44 23.5 C 26.44 25.12 25.12 26.44 23.5 26.44 Z M 23.5 42.59 C 12.97 42.59 4.41 34.03 4.41 23.5 C 4.41 21.4 4.76 19.38 5.39 17.49 C 5.39 17.49 16.25 22.55 16.25 22.55 C 16.21 22.86 16.16 23.17 16.16 23.5 C 16.16 27.56 19.44 30.84 23.5 30.84 C 23.82 30.84 24.13 30.79 24.45 30.75 C 24.45 30.75 29.51 41.61 29.51 41.61 C 27.62 42.24 25.6 42.59 23.5 42.59 Z M 33.5 39.73 C 33.5 39.73 28.44 28.89 28.44 28.89 C 28.6 28.75 28.75 28.6 28.9 28.45 C 28.9 28.45 39.73 33.5 39.73 33.5 C 38.17 36.03 36.03 38.17 33.5 39.73 Z M 30.75 24.45 C 30.79 24.13 30.84 23.82 30.84 23.5 C 30.84 19.44 27.56 16.16 23.5 16.16 C 23.18 16.16 22.87 16.21 22.55 16.25 C 22.55 16.25 17.49 5.39 17.49 5.39 C 19.38 4.76 21.4 4.41 23.5 4.41 C 34.03 4.41 42.59 12.97 42.59 23.5 C 42.59 25.6 42.24 27.62 41.61 29.51 C 41.61 29.51 30.75 24.45 30.75 24.45 Z" />
</svg>