<?xml version="1.0" encoding="utf-8"?>
<!-- Generator: Avocode 2.4.5 - http://avocode.com -->
<svg height="52" width="55" xmlns:xlink="http://www.w3.org/1999/xlink" xmlns="http://www.w3.org/2000/svg" viewBox="0 0 55 52">
    <path fill="#ff3334" fill-rule="evenodd" d="M 50.64 31.67 C 51.36 29.36 51.76 26.92 51.76 24.38 C 51.76 10.93 40.88 0 27.5 0 C 14.12 0 3.23 10.93 3.23 24.38 C 3.23 26.92 3.64 29.36 4.36 31.67 C 1.71 33.75 0 36.98 0 40.63 C 0 46.91 5.07 52 11.32 52 C 11.32 52 12.94 52 12.94 52 C 14.73 52 16.18 50.54 16.18 48.75 C 16.18 48.75 16.18 32.5 16.18 32.5 C 16.18 30.7 14.73 29.25 12.94 29.25 C 12.94 29.25 11.32 29.25 11.32 29.25 C 10.46 29.25 9.62 29.36 8.8 29.54 C 8.35 27.89 8.09 26.17 8.09 24.38 C 8.09 13.62 16.8 4.88 27.5 4.88 C 38.2 4.88 46.91 13.62 46.91 24.38 C 46.91 26.17 46.65 27.89 46.2 29.54 C 45.38 29.36 44.54 29.25 43.68 29.25 C 43.68 29.25 42.06 29.25 42.06 29.25 C 40.27 29.25 38.82 30.7 38.82 32.5 C 38.82 32.5 38.82 48.75 38.82 48.75 C 38.82 50.54 40.27 52 42.06 52 C 42.06 52 43.68 52 43.68 52 C 49.93 52 55 46.91 55 40.63 C 55 36.98 53.29 33.75 50.64 31.67 Z M 11.32 47.13 C 7.76 47.13 4.85 44.21 4.85 40.63 C 4.85 37.04 7.76 34.12 11.32 34.12 C 11.32 34.12 11.32 47.13 11.32 47.13 Z M 43.68 47.13 C 43.68 47.13 43.68 34.12 43.68 34.12 C 47.24 34.12 50.15 37.04 50.15 40.63 C 50.15 44.21 47.24 47.13 43.68 47.13 Z" />
</svg>