<?xml version="1.0" encoding="utf-8"?>
<!-- Generator: Avocode 2.4.5 - http://avocode.com -->
<svg height="51" width="50" xmlns:xlink="http://www.w3.org/1999/xlink" xmlns="http://www.w3.org/2000/svg" viewBox="0 0 50 51">
    <path fill="#ff3334" fill-rule="evenodd" d="M 25 51 C 11.21 51 0 39.92 0 26.3 C 0 18.22 4.04 10.63 10.8 6 C 11.19 5.73 11.65 5.59 12.1 5.58 C 12.89 5.56 13.68 5.92 14.16 6.61 C 14.92 7.69 14.65 9.18 13.55 9.93 C 8.1 13.67 4.84 19.78 4.84 26.3 C 4.84 37.28 13.88 46.22 25 46.22 C 36.12 46.22 45.16 37.28 45.16 26.3 C 45.16 19.78 41.9 13.67 36.45 9.93 C 35.35 9.18 35.08 7.69 35.84 6.61 C 36.31 5.93 37.08 5.57 37.86 5.58 C 38.32 5.58 38.79 5.72 39.2 6 C 45.96 10.63 50 18.22 50 26.3 C 50 39.92 38.79 51 25 51 Z M 25 19.13 C 23.66 19.13 22.58 18.05 22.58 16.73 C 22.58 16.73 22.58 2.39 22.58 2.39 C 22.58 1.07 23.66 0 25 0 C 26.34 0 27.42 1.07 27.42 2.39 C 27.42 2.39 27.42 16.73 27.42 16.73 C 27.42 18.05 26.34 19.13 25 19.13 Z" />
</svg>